<?xml version="1.0" standalone="no"?>
<!DOCTYPE svg PUBLIC "-//W3C//DTD SVG 20010904//EN"
 "http://www.w3.org/TR/2001/REC-SVG-20010904/DTD/svg10.dtd">
<svg version="1.0" xmlns="http://www.w3.org/2000/svg"
 width="1280.000000pt" height="1240.000000pt" viewBox="0 0 1280.000000 1240.000000"
 preserveAspectRatio="xMidYMid meet">
<metadata>
Created by potrace 1.15, written by Peter Selinger 2001-2017
</metadata>
<g transform="translate(0.000000,1240.000000) scale(0.100000,-0.100000)"
fill="#000000" stroke="none">
<path d="M1920 12389 c-129 -13 -315 -55 -447 -100 -767 -262 -1320 -936
-1449 -1769 -25 -161 -25 -501 -1 -660 39 -253 99 -443 212 -675 164 -338 379
-591 704 -832 2 -2 -30 -74 -72 -160 -291 -603 -463 -1241 -529 -1953 -18
-201 -15 -727 5 -940 130 -1345 700 -2545 1667 -3510 946 -944 2185 -1550
3545 -1734 291 -39 467 -50 845 -50 457 0 696 20 1100 90 1967 343 3639 1598
4455 3346 274 586 437 1188 502 1858 23 239 23 758 -1 995 -68 693 -246 1332
-536 1928 -35 70 -61 129 -59 130 308 222 541 497 704 832 113 232 173 422
212 675 24 159 24 499 -1 660 -114 736 -561 1355 -1201 1666 -428 208 -879
264 -1340 167 -401 -84 -789 -301 -1081 -604 -144 -150 -252 -298 -358 -493
-44 -80 -63 -106 -75 -103 -9 3 -78 28 -153 56 -662 244 -1438 381 -2168 381
-729 0 -1507 -137 -2168 -381 -75 -28 -144 -53 -153 -56 -12 -3 -31 23 -75
103 -183 335 -419 595 -724 797 -128 85 -349 193 -490 240 -270 90 -585 125
-870 96z"/>
</g>
</svg>
